<svg width="24" height="26" viewBox="0 0 24 26" fill="none" xmlns="http://www.w3.org/2000/svg">
<path opacity="0.2" d="M22 7C22 8.11936 21.1544 9.35288 19.2993 10.3647C17.4821 11.356 14.9032 12 12 12C9.09678 12 6.51794 11.356 4.70068 10.3647C2.8456 9.35288 2 8.11936 2 7C2 5.88064 2.8456 4.64712 4.70068 3.63525C6.51794 2.64402 9.09678 2 12 2C14.9032 2 17.4821 2.64402 19.2993 3.63525C21.1544 4.64712 22 5.88064 22 7Z" fill="white" stroke="#0A65CC" stroke-width="2"/>
<path d="M12 13C18.0751 13 23 10.3137 23 7C23 3.68629 18.0751 1 12 1C5.92487 1 1 3.68629 1 7C1 10.3137 5.92487 13 12 13Z" stroke="#0A65CC" stroke-width="2" stroke-linecap="round" stroke-linejoin="round"/>
<path d="M1 7V13C1 16.3137 5.92487 19 12 19C18.0751 19 23 16.3137 23 13V7" stroke="#0A65CC" stroke-width="2" stroke-linecap="round" stroke-linejoin="round"/>
<path d="M1 13V19C1 22.3137 5.92487 25 12 25C18.0751 25 23 22.3137 23 19V13" stroke="#0A65CC" stroke-width="2" stroke-linecap="round" stroke-linejoin="round"/>
</svg>
