<svg width="32" height="32" viewBox="0 0 32 32" fill="none" xmlns="http://www.w3.org/2000/svg">
<path opacity="0.2" d="M24.9995 15.0007L22.2021 7.54111C22.1405 7.3768 22.0368 7.23159 21.9013 7.12008C21.7658 7.00856 21.6033 6.93467 21.4302 6.90583L3.99951 4.0007L6.90466 21.4314C6.93351 21.6045 7.00739 21.767 7.1189 21.9025C7.23041 22.038 7.37561 22.1417 7.53991 22.2033L14.9995 25.0007L24.9995 15.0007ZM11.9999 14.5C11.9999 14.0055 12.1466 13.5222 12.4213 13.111C12.696 12.6999 13.0864 12.3795 13.5432 12.1903C14 12.0011 14.5027 11.9515 14.9877 12.048C15.4726 12.1445 15.9181 12.3826 16.2677 12.7322C16.6173 13.0818 16.8554 13.5273 16.9519 14.0122C17.0484 14.4972 16.9989 14.9999 16.8096 15.4567C16.6204 15.9135 16.3 16.3039 15.8889 16.5786C15.4777 16.8534 14.9944 17 14.4999 17C14.1716 17 13.8465 16.9353 13.5432 16.8097C13.2399 16.684 12.9643 16.4999 12.7322 16.2677C12.5 16.0356 12.3159 15.76 12.1902 15.4567C12.0646 15.1534 11.9999 14.8283 11.9999 14.5Z" fill="#0A65CC"/>
<path d="M12 14.5C12 15.8807 13.1193 17 14.5 17C15.8807 17 17 15.8807 17 14.5C17 13.1193 15.8807 12 14.5 12C13.1193 12 12 13.1193 12 14.5Z" stroke="#0A65CC" stroke-width="2" stroke-linecap="round" stroke-linejoin="round"/>
<path d="M3.99952 4.00073L12.7322 12.7322" stroke="#0A65CC" stroke-width="2" stroke-linecap="round" stroke-linejoin="round"/>
<path d="M3.99952 4.00073L6.90464 21.4314C6.93349 21.6045 7.00738 21.767 7.11889 21.9025C7.2304 22.038 7.3756 22.1418 7.53991 22.2034L14.9995 25.0007L24.9995 15.0007L22.2022 7.54112C22.1405 7.37682 22.0368 7.23161 21.9013 7.1201C21.7658 7.00859 21.6033 6.9347 21.4302 6.90585L3.99952 4.00073Z" stroke="#0A65CC" stroke-width="2" stroke-linecap="round" stroke-linejoin="round"/>
<path d="M14.9994 25.0007L18.2923 28.2936C18.3852 28.3865 18.4954 28.4601 18.6167 28.5104C18.7381 28.5607 18.8681 28.5865 18.9994 28.5865C19.1307 28.5865 19.2608 28.5607 19.3821 28.5104C19.5034 28.4601 19.6137 28.3865 19.7065 28.2936L28.2923 19.7078C28.4798 19.5203 28.5852 19.2659 28.5852 19.0007C28.5852 18.7355 28.4798 18.4812 28.2923 18.2936L24.9994 15.0007" stroke="#0A65CC" stroke-width="2" stroke-linecap="round" stroke-linejoin="round"/>
</svg>
